<svg xmlns="http://www.w3.org/2000/svg" width="32" height="32" viewBox="0 0 32 32">
  <path fill="#FFF" fill-rule="evenodd" d="M7.2988764 0C11.3258427 0 14.5977528 3.27191011 14.5977528 7.2988764 14.5977528 11.3258427 11.3258427 14.5977528 7.2988764 14.5977528 3.27191011 14.5977528 0 11.3258427 0 7.2988764 0 3.27191011 3.27191011 0 7.2988764 0M24.4134831 0C28.4404494 0 31.7123596 3.27191011 31.7123596 7.2988764 31.7123596 11.3258427 28.4404494 14.5977528 24.4134831 14.5977528 20.3865169 14.5977528 17.1146067 11.3258427 17.1146067 7.2988764 17.1146067 3.27191011 20.3865169 0 24.4134831 0M14.5977528 24.4134831C14.5977528 28.4404494 11.3258427 31.7123596 7.2988764 31.7123596 3.27191011 31.7123596 0 28.4404494 0 24.4134831 0 20.3865169 3.27191011 17.1146067 7.2988764 17.1146067 11.3258427 17.1146067 14.5977528 20.3865169 14.5977528 24.4134831"/>
</svg>
