<svg xmlns="http://www.w3.org/2000/svg" width="64" height="64" viewBox="0 0 64 64"><defs><style>.a{fill:#303030;}</style></defs><path class="a" d="M307.465,128.049a1.877,1.877,0,0,1,1.875,1.875,1.875,1.875,0,0,0,3.75,0,5.635,5.635,0,0,0-3.73-5.3v-2.753a1.875,1.875,0,0,0-3.75,0v2.74a5.625,5.625,0,0,0,1.855,10.935,1.875,1.875,0,1,1-1.875,1.875,1.875,1.875,0,0,0-3.75,0,5.634,5.634,0,0,0,3.77,5.309v1.642a1.875,1.875,0,0,0,3.75,0V142.72a5.625,5.625,0,0,0-1.9-10.92,1.875,1.875,0,0,1,0-3.75Zm0,0" transform="translate(-264.11 -105)"/><path class="a" d="M43.375,7.5c-.632,0-1.257.03-1.875.086V5.625A5.631,5.631,0,0,0,35.875,0H5.625A5.631,5.631,0,0,0,0,5.625v52.75A5.631,5.631,0,0,0,5.625,64h30.25A5.631,5.631,0,0,0,41.5,58.375V48.664q.933.085,1.875.086a20.625,20.625,0,0,0,0-41.25ZM3.75,5.625A1.877,1.877,0,0,1,5.625,3.75h30.25A1.877,1.877,0,0,1,37.75,5.625V7.5h-34ZM35.875,60.25H5.625A1.877,1.877,0,0,1,3.75,58.375V56.5h34v1.875A1.877,1.877,0,0,1,35.875,60.25Zm1.875-7.5h-34v-41.5H31.53A20.621,20.621,0,0,0,25.792,38.91l-2.907,7.269a1.875,1.875,0,0,0,2.2,2.515l8.873-2.218a20.554,20.554,0,0,0,3.8,1.492ZM43.375,45a16.879,16.879,0,0,1-8.255-2.153,1.873,1.873,0,0,0-1.374-.185l-6.019,1.5L29.634,39.4a1.875,1.875,0,0,0-.194-1.756A16.876,16.876,0,1,1,43.375,45Zm0,0"/><path class="a" d="M69.625,120h-7.75a1.875,1.875,0,0,0,0,3.75h7.75a1.875,1.875,0,0,0,0-3.75Zm0,0" transform="translate(-52.5 -105)"/><path class="a" d="M69.625,180h-7.75a1.875,1.875,0,0,0,0,3.75h7.75a1.875,1.875,0,0,0,0-3.75Zm0,0" transform="translate(-52.5 -157.5)"/></svg>