<svg xmlns="http://www.w3.org/2000/svg" width="65" height="58.002" viewBox="0 0 65 58.002"><defs><style>.a{fill:#303030;stroke:#303030;}</style></defs><g transform="translate(0.5 -28.643)"><g transform="translate(0 28.193)"><path class="a" d="M64,56.669a3.531,3.531,0,0,0-1.962-3.175l-4.765-2.383,4.765-2.382h0a3.55,3.55,0,0,0,0-6.349l-26.9-13.451a7.052,7.052,0,0,0-6.273,0L1.961,42.381a3.549,3.549,0,0,0,0,6.349l4.765,2.382L1.961,53.495a3.55,3.55,0,0,0,0,6.349l4.765,2.383L1.962,64.609a3.55,3.55,0,0,0,0,6.349l26.9,13.451a7.053,7.053,0,0,0,6.273,0l26.9-13.451a3.549,3.549,0,0,0,0-6.349l-4.765-2.383,4.766-2.383A3.531,3.531,0,0,0,64,56.669ZM3.278,46.1a.607.607,0,0,1,0-1.086l26.9-13.45a4.1,4.1,0,0,1,3.642,0l26.9,13.45a.607.607,0,0,1,0,1.086l-26.9,13.45a4.1,4.1,0,0,1-3.642,0ZM60.723,67.241a.607.607,0,0,1,0,1.086l-26.9,13.45a4.1,4.1,0,0,1-3.642,0l-26.9-13.45a.607.607,0,0,1,0-1.086l6.739-3.369,18.847,9.423a7.053,7.053,0,0,0,6.273,0l18.846-9.423Zm0-10.029-26.9,13.45a4.1,4.1,0,0,1-3.642,0l-26.9-13.45a.607.607,0,0,1,0-1.086l6.739-3.369L28.864,62.18a7.052,7.052,0,0,0,6.273,0l18.847-9.423,6.738,3.369a.607.607,0,0,1,0,1.086Z" transform="translate(0 -27.193)"/></g></g></svg>