<svg xmlns="http://www.w3.org/2000/svg" width="65.084" height="65.085" viewBox="0 0 65.084 65.085"><defs><style>.a{fill:#303030;stroke:#303030;}</style></defs><g transform="translate(0.585 0.5)"><g transform="translate(0 21.6)"><g transform="translate(0)"><path class="a" d="M41.105,197.293c-.673-.4-1.363-.811-2.054-1.209a17.883,17.883,0,0,0,0-4.164c.693-.4,1.383-.806,2.053-1.209a2.7,2.7,0,0,0,1.093-3.325h0l-1.471-3.552a2.7,2.7,0,0,0-3.124-1.579c-.759.189-1.534.39-2.307.6a17.889,17.889,0,0,0-2.945-2.944c.207-.773.408-1.548.6-2.308a2.7,2.7,0,0,0-1.579-3.124L27.816,173a2.7,2.7,0,0,0-3.326,1.093c-.4.672-.81,1.362-1.209,2.054a17.89,17.89,0,0,0-4.164,0c-.4-.694-.807-1.384-1.209-2.053A2.7,2.7,0,0,0,14.583,173l-3.552,1.471A2.7,2.7,0,0,0,9.452,177.6c.189.761.39,1.536.6,2.307A17.877,17.877,0,0,0,7.1,182.851c-.774-.208-1.55-.409-2.308-.6a2.7,2.7,0,0,0-3.124,1.579L.2,187.384a2.7,2.7,0,0,0,1.093,3.325c.672.4,1.362.81,2.054,1.209a17.9,17.9,0,0,0,0,4.164c-.692.4-1.382.806-2.054,1.209A2.7,2.7,0,0,0,.2,200.618l1.471,3.552A2.7,2.7,0,0,0,4.8,205.749c.758-.189,1.533-.389,2.307-.6a17.9,17.9,0,0,0,2.945,2.944c-.208.774-.408,1.549-.6,2.308a2.7,2.7,0,0,0,1.579,3.124L14.583,215a2.655,2.655,0,0,0,1.017.2,2.7,2.7,0,0,0,2.309-1.294c.4-.667.807-1.357,1.209-2.054a17.917,17.917,0,0,0,4.164,0c.4.689.8,1.379,1.209,2.053A2.7,2.7,0,0,0,27.817,215l3.552-1.471a2.7,2.7,0,0,0,1.579-3.124c-.188-.754-.389-1.53-.6-2.307a17.9,17.9,0,0,0,2.944-2.945c.772.207,1.548.408,2.307.6a2.7,2.7,0,0,0,3.124-1.579l1.471-3.552A2.7,2.7,0,0,0,41.105,197.293Zm-2.966,5.638c-.73-.183-1.473-.376-2.213-.575a2.677,2.677,0,0,0-2.815.938,15.02,15.02,0,0,1-2.621,2.622,2.675,2.675,0,0,0-.937,2.814c.2.744.393,1.488.575,2.212l-3.265,1.352c-.388-.648-.777-1.31-1.157-1.971A2.677,2.677,0,0,0,23.054,209a15.037,15.037,0,0,1-3.707,0,2.675,2.675,0,0,0-2.654,1.327c-.385.668-.774,1.33-1.158,1.972L12.27,210.94c.183-.728.376-1.472.575-2.213a2.676,2.676,0,0,0-.938-2.815,15.021,15.021,0,0,1-2.622-2.621,2.675,2.675,0,0,0-2.814-.937c-.74.2-1.484.393-2.212.575l-1.352-3.265c.645-.387,1.307-.776,1.971-1.157a2.675,2.675,0,0,0,1.327-2.652,15.038,15.038,0,0,1,0-3.707,2.676,2.676,0,0,0-1.327-2.654c-.663-.382-1.325-.771-1.971-1.158l1.352-3.265c.727.182,1.471.376,2.213.575a2.677,2.677,0,0,0,2.815-.938,15.016,15.016,0,0,1,2.621-2.621,2.675,2.675,0,0,0,.937-2.814c-.2-.738-.392-1.481-.575-2.212l3.265-1.352c.385.643.774,1.305,1.157,1.971a2.675,2.675,0,0,0,2.652,1.327,15.009,15.009,0,0,1,3.707,0,2.676,2.676,0,0,0,2.654-1.327c.382-.663.771-1.326,1.158-1.971l3.265,1.352c-.183.729-.376,1.473-.575,2.213a2.676,2.676,0,0,0,.938,2.815,15.025,15.025,0,0,1,2.622,2.621,2.675,2.675,0,0,0,2.814.937c.74-.2,1.483-.392,2.212-.575l1.352,3.265c-.644.386-1.306.775-1.971,1.158a2.675,2.675,0,0,0-1.327,2.652,15.022,15.022,0,0,1,0,3.707,2.677,2.677,0,0,0,1.327,2.654c.662.381,1.325.77,1.971,1.158Z" transform="translate(0 -172.801)"/></g></g><g transform="translate(11.436 33.037)"><path class="a" d="M110.277,270.32h0a9.775,9.775,0,1,0-5.284,12.756A9.774,9.774,0,0,0,110.277,270.32Zm-6.38,10.11a6.9,6.9,0,1,1,3.734-9.013A6.854,6.854,0,0,1,103.9,280.43Z" transform="translate(-91.494 -264.293)"/></g><g transform="translate(31.481)"><path class="a" d="M282.435,12.617c-.495-.074-1-.146-1.514-.214a13.333,13.333,0,0,0-1.027-2.477c.313-.409.621-.819.92-1.222a2.282,2.282,0,0,0-.223-2.953l-1.976-1.976a2.282,2.282,0,0,0-2.953-.222c-.4.3-.814.607-1.222.919a13.33,13.33,0,0,0-2.477-1.027c-.068-.511-.14-1.019-.214-1.514A2.283,2.283,0,0,0,269.5,0h-2.794a2.282,2.282,0,0,0-2.245,1.931c-.074.494-.146,1-.214,1.514a13.327,13.327,0,0,0-2.477,1.027c-.408-.312-.818-.62-1.222-.919a2.282,2.282,0,0,0-2.953.222L255.622,5.75A2.283,2.283,0,0,0,255.4,8.7c.3.4.606.813.919,1.222a13.347,13.347,0,0,0-1.027,2.477c-.511.068-1.019.14-1.514.214a2.283,2.283,0,0,0-1.931,2.245v2.794a2.283,2.283,0,0,0,1.931,2.245c.495.074,1,.146,1.514.214a13.345,13.345,0,0,0,1.027,2.477c-.313.409-.621.819-.92,1.222a2.282,2.282,0,0,0,.222,2.953l1.976,1.976a2.282,2.282,0,0,0,2.953.222c.4-.3.814-.607,1.222-.919a13.337,13.337,0,0,0,2.477,1.027c.068.511.14,1.019.214,1.514a2.283,2.283,0,0,0,2.245,1.931H269.5a2.282,2.282,0,0,0,2.245-1.931c.074-.494.146-1,.214-1.514a13.32,13.32,0,0,0,2.477-1.027c.408.312.818.62,1.222.919a2.282,2.282,0,0,0,2.953-.222l1.976-1.976a2.283,2.283,0,0,0,.222-2.953c-.3-.4-.607-.813-.919-1.222a13.343,13.343,0,0,0,1.027-2.477c.511-.068,1.019-.14,1.514-.214a2.283,2.283,0,0,0,1.931-2.245V14.862A2.283,2.283,0,0,0,282.435,12.617Zm-.791,4.651c-.449.065-.907.128-1.367.188a2.263,2.263,0,0,0-1.9,1.644,10.6,10.6,0,0,1-1,2.416,2.264,2.264,0,0,0,.177,2.5c.282.367.561.735.834,1.1l-1.425,1.426c-.366-.273-.734-.552-1.1-.834a2.264,2.264,0,0,0-2.5-.178,10.6,10.6,0,0,1-2.416,1,2.263,2.263,0,0,0-1.644,1.9c-.06.46-.123.918-.188,1.367H267.1c-.065-.449-.128-.907-.188-1.366a2.264,2.264,0,0,0-1.644-1.9,10.593,10.593,0,0,1-2.416-1,2.264,2.264,0,0,0-2.5.177c-.366.281-.734.561-1.1.834l-1.426-1.426c.272-.365.552-.733.834-1.1a2.264,2.264,0,0,0,.177-2.5,10.6,10.6,0,0,1-1-2.416,2.263,2.263,0,0,0-1.9-1.644c-.46-.06-.918-.123-1.367-.188V15.251c.449-.065.907-.128,1.367-.188a2.263,2.263,0,0,0,1.9-1.644,10.594,10.594,0,0,1,1-2.416,2.264,2.264,0,0,0-.177-2.5c-.282-.367-.562-.736-.834-1.1l1.426-1.426c.366.273.734.552,1.1.833a2.264,2.264,0,0,0,2.5.178,10.6,10.6,0,0,1,2.416-1,2.263,2.263,0,0,0,1.644-1.9c.06-.46.123-.918.188-1.367h2.016c.065.449.128.907.188,1.366a2.264,2.264,0,0,0,1.644,1.9,10.6,10.6,0,0,1,2.416,1,2.264,2.264,0,0,0,2.5-.177c.366-.281.734-.561,1.1-.834L278.392,7.4c-.272.364-.551.733-.834,1.1a2.264,2.264,0,0,0-.177,2.5,10.605,10.605,0,0,1,1,2.416,2.263,2.263,0,0,0,1.9,1.644c.46.06.918.123,1.367.188Z" transform="translate(-251.847)"/></g><g transform="translate(41.94 10.459)"><path class="a" d="M341.323,83.675a5.8,5.8,0,1,0,5.8,5.8A5.807,5.807,0,0,0,341.323,83.675Zm0,9.022a3.222,3.222,0,1,1,3.222-3.222A3.226,3.226,0,0,1,341.323,92.7Z" transform="translate(-335.523 -83.675)"/></g></g></svg>